# xmcd
#
# Track frame offsets:
#	150
#	16697
#	41302
#	55477
#	80880
#	97257
#	113616
#	138358
#	157930
#	173490
#	189060
#	203542
#	222926
#	237449
#	256040
#	279409
#
# Disc length: 3945 seconds
#
# Revision: 0
# Processed by: cddbd v1.4PL0 Copyright (c) Steve Scherf et al.
# Submitted via: dBpowerAMP V4.0
#
DISCID=c90f6710
DTITLE=Bob Seeley - Industrial Strength
DYEAR=1997
DGENRE=Blues
TTITLE0=Bumble Boogie
TTITLE1=After Hours
TTITLE2=Industrial Strength Boogie
TTITLE3=Amazing Grace
TTITLE4=Cuttin' The Boogie
TTITLE5=Chuck Muer's Boogie
TTITLE6=Suitcase Blues
TTITLE7=Bearcat Crawl
TTITLE8=Fate
TTITLE9=Boogie Woogie Prayer
TTITLE10=Swingin' the Boogie
TTITLE11=Tell Your Story
TTITLE12=Foot Pedal Boogie
TTITLE13=Lux's Boogie
TTITLE14=Early Morning Commute
TTITLE15=Telling My Story
EXTD=
EXTT0=
EXTT1=
EXTT2=
EXTT3=
EXTT4=
EXTT5=
EXTT6=
EXTT7=
EXTT8=
EXTT9=
EXTT10=
EXTT11=
EXTT12=
EXTT13=
EXTT14=
EXTT15=
PLAYORDER=
